<?xml version="1.0" standalone="no"?>
<!DOCTYPE svg PUBLIC "-//W3C//DTD SVG 20010904//EN"
 "http://www.w3.org/TR/2001/REC-SVG-20010904/DTD/svg10.dtd">
<svg version="1.0" xmlns="http://www.w3.org/2000/svg"
 width="1920.000000pt" height="16.000000pt" viewBox="0 0 1920.000000 16.000000"
 preserveAspectRatio="xMidYMid meet">

<g transform="translate(0.000000,16.000000) scale(0.100000,-0.100000)"
fill="#000000" stroke="none">
<path d="M1665 147 c-18 -10 -109 -17 -252 -18 -29 -1 -68 4 -87 11 -20 6 -41
8 -48 4 -24 -15 -87 -18 -218 -9 -30 1 -102 -1 -160 -6 -58 -6 -159 -14 -225
-19 -66 -6 -124 -11 -130 -12 -27 -3 -372 15 -390 22 -11 4 -50 5 -88 2 l-67
-4 0 -59 0 -59 9601 0 9600 0 -3 28 -3 27 -110 1 c-60 1 -137 -3 -170 -9 -110
-18 -245 -17 -293 4 -42 18 -44 18 -75 -1 -38 -23 -82 -25 -117 -5 -32 18 -94
19 -129 1 -15 -8 -56 -15 -92 -16 -104 -3 -392 9 -468 20 -46 6 -79 6 -96 0
-29 -11 -107 -12 -143 -1 -13 3 -49 4 -80 1 -33 -3 -70 0 -87 6 -44 17 -125
28 -102 14 9 -6 17 -15 17 -20 0 -12 -112 -13 -125 -2 -17 15 -144 45 -165 39
-15 -4 -20 0 -20 13 0 15 -12 19 -82 24 -46 3 -114 9 -153 12 -38 2 -169 5
-290 4 -121 0 -243 5 -271 10 -47 10 -55 9 -99 -15 -49 -26 -85 -32 -85 -15 0
6 -9 6 -24 0 -14 -5 -75 -7 -135 -6 -61 2 -113 1 -115 -3 -7 -11 -304 -3 -342
9 -22 7 -49 9 -72 4 -20 -4 -56 -6 -78 -5 -24 2 -55 -4 -74 -14 -21 -11 -41
-14 -59 -9 -51 14 -149 13 -162 -2 -6 -8 -27 -14 -47 -14 -19 0 -52 -5 -73
-11 -28 -9 -42 -9 -52 -1 -7 6 -74 14 -148 18 -150 8 -169 8 -219 -1 -21 -4
-76 2 -135 14 -114 22 -163 27 -187 17 -9 -4 -27 -2 -40 5 -14 8 -66 14 -128
15 -84 2 -109 -1 -123 -14 -26 -23 -122 -27 -203 -9 -90 20 -189 22 -344 4
-69 -7 -136 -11 -150 -7 -37 9 -72 1 -77 -18 -3 -15 -22 -17 -130 -18 -99 -1
-129 -5 -137 -17 -26 -34 -160 -32 -171 3 -5 17 -9 17 -39 5 -18 -8 -37 -11
-41 -7 -4 4 -21 8 -38 8 -18 1 -73 7 -122 14 -85 11 -94 10 -150 -11 -36 -13
-80 -22 -110 -21 -27 1 -121 3 -207 4 -86 2 -160 6 -164 11 -4 4 -33 7 -65 7
-45 0 -57 -3 -53 -14 7 -17 -128 -28 -381 -30 -157 -2 -185 0 -222 17 -32 14
-47 16 -62 8 -30 -16 -88 -14 -95 4 -3 8 -12 15 -20 15 -8 0 -19 7 -24 16 -8
13 -19 14 -86 5 -48 -7 -129 -8 -214 -4 -75 4 -171 6 -212 3 -123 -7 -465 2
-476 13 -3 3 -22 3 -43 0 -23 -3 -41 -1 -45 6 -11 17 -79 14 -73 -2 4 -11 -9
-14 -56 -14 -34 -1 -66 3 -72 7 -5 5 -32 11 -60 14 -113 12 -150 13 -165 1
-27 -22 -63 -25 -82 -8 -14 13 -20 13 -33 3 -11 -9 -32 -10 -77 -5 -35 4 -95
8 -135 9 -39 0 -74 4 -78 8 -4 3 -20 2 -37 -4 -27 -9 -57 -8 -168 8 -22 4 -70
-4 -127 -20 -99 -28 -152 -32 -185 -15 -15 8 -30 7 -63 -6 -28 -10 -56 -14
-78 -10 -19 4 -37 3 -40 -2 -3 -4 -48 -7 -101 -5 -75 3 -96 6 -96 18 0 17 1
17 -37 3 -23 -8 -45 -6 -90 5 -33 9 -93 15 -134 14 -41 0 -101 4 -134 10 -36
7 -98 9 -155 5 -52 -4 -198 -6 -324 -6 -179 0 -230 3 -236 14 -7 10 -14 10
-35 1 -15 -7 -42 -9 -64 -6 -26 4 -41 2 -49 -9 -11 -13 -18 -13 -54 0 -33 11
-47 12 -64 3 -15 -9 -27 -9 -41 -2 -32 17 -529 23 -575 6 -21 -7 -38 -11 -38
-8 0 2 -9 0 -20 -6 -15 -8 -30 -8 -56 0 -19 7 -73 12 -119 13 -67 2 -85 -1
-87 -13 -3 -11 -22 -14 -101 -12 -65 2 -116 -3 -150 -13 -62 -18 -151 -20
-165 -3 -8 10 -45 11 -159 6 -93 -4 -171 -2 -210 4 -47 9 -69 8 -88 0 -14 -7
-48 -12 -75 -12 -27 0 -52 -4 -55 -10 -3 -5 -33 -10 -66 -10 -34 0 -69 -6 -82
-14 -19 -12 -27 -12 -59 1 -21 8 -38 19 -38 23 0 4 -11 5 -24 3 -13 -3 -35 2
-48 11 -20 13 -60 18 -133 16 -11 -1 -42 0 -70 1 -27 1 -61 0 -75 -1 -23 -2
-189 -1 -299 1 -25 0 -54 5 -65 12 -25 13 -147 16 -139 3 3 -5 0 -7 -8 -4 -7
2 -23 -4 -34 -14 -19 -18 -20 -18 -36 3 -13 18 -19 20 -38 10 -17 -10 -22 -9
-27 4 -8 19 -38 19 -68 0 -22 -14 -25 -14 -41 2 -19 18 -77 19 -121 3 -45 -18
-474 -2 -553 20 -30 8 -82 10 -158 6 -63 -4 -179 -6 -258 -7 -104 0 -152 -4
-172 -14 -33 -17 -144 -10 -188 13 -37 19 -134 24 -160 9z"/>
</g>
</svg>
